<?xml version="1.0" encoding="utf-8"?>
<!-- Generator: Adobe Illustrator 25.2.1, SVG Export Plug-In . SVG Version: 6.00 Build 0)  -->
<svg version="1.1" id="Layer_1" xmlns="http://www.w3.org/2000/svg" xmlns:xlink="http://www.w3.org/1999/xlink" x="0px" y="0px"
	 viewBox="0 0 439.6 113.4" style="enable-background:new 0 0 439.6 113.4;" xml:space="preserve">
<style type="text/css">
	.st0{fill:#FFFFFF;}
	.st1{fill:none;stroke:#FDB913;stroke-width:1.5001;stroke-miterlimit:2.6131;}
	.st2{fill-rule:evenodd;clip-rule:evenodd;fill:#FDB913;}
</style>
<path class="st0" d="M426.9,32.9h12.7v0.4c-1.3,0.2-2.2,0.8-2.7,1.6s-0.7,1.9-0.7,3.1v23.6c0,3.4,1.1,5.3,3.4,5.4v0.5h-12.7V67
	c1.4-0.2,2.4-0.8,2.8-1.6s0.7-2.3,0.7-4.4V39.7c0-2.3-0.3-3.8-0.8-4.8c-0.5-0.9-1.4-1.5-2.7-1.6L426.9,32.9L426.9,32.9z M410.1,33.4
	V33H423v0.4c-2.4,0.2-3.6,2-3.6,5.2v22.7c0,3.7,1.2,5.7,3.6,5.9v0.5h-12.9v-0.5c1.5-0.1,2.5-0.6,2.9-1.6c0.4-0.9,0.6-2.4,0.6-4.3
	V45.1h-15.9v16.2c0,2,0.3,3.4,0.8,4.3s1.4,1.4,2.6,1.5v0.5h-12.7v-0.5c2.4-0.1,3.6-1.7,3.6-4.9V38.1c0-2.7-1.2-4.3-3.6-4.7V33h12.7
	v0.4c-1.5,0.1-2.4,0.7-2.8,1.7s-0.6,2.2-0.6,3.6v4h15.9v-2.9c0-2.6-0.3-4.3-0.8-5.1C412.2,33.9,411.3,33.5,410.1,33.4z M382,68.3
	c-0.1-0.2-0.5-0.3-1.3-0.4c-0.6,0.1-1.2,0.1-1.9,0.2c-0.6,0-1.5,0.1-2.7,0.2c-1.1,0.1-2.1,0.1-2.9,0.1c-2.6,0-5.3-0.4-8.2-1.3
	c-2.9-0.9-5.3-2.2-7.3-3.9c-2-1.8-3.5-3.9-4.6-6.4s-1.7-5.1-1.7-7.9c0.1-2.6,0.5-5,1.3-7.1c1.6-4,4.1-6.6,7.4-7.8s6.4-1.7,9.2-1.7
	c1.3,0,2.7,0.1,4.3,0.3c1.6,0.2,2.6,0.3,3.2,0.3c1.5-0.1,2.4-0.5,2.7-1.2l2.4,10l-0.4,0.2c-0.6-1.6-1.5-2.9-2.8-4
	c-1.3-1-2.7-1.8-4.2-2.2c-1.5-0.5-3-0.7-4.4-0.7c-3.6,0-6.5,1.1-8.8,3.4c-2.3,2.3-3.4,5.9-3.4,10.9c0,2.8,0.7,5.5,2.1,8
	s3.4,4.5,5.8,6s5,2.3,7.7,2.3c2.6,0,4.8-0.6,6.7-1.8c1.9-1.2,3.7-3.2,5.4-6.1l0.5-0.2L382,68.3z M325.9,52.1l-3.3,9.3
	c-0.2,0.7-0.4,1.7-0.6,2.8c0.1,1.9,1.1,2.9,3,3v0.5h-10.9v-0.5c1.1-0.1,1.9-0.6,2.6-1.3c0.7-0.8,1.4-2.2,2.1-4.1l9.4-24.9
	c0.2-0.5,0.3-1,0.3-1.5c0-1.1-0.6-1.7-1.7-2V33h11.8v0.4c-1,0.2-1.5,0.9-1.6,2c0.1,0.2,0.1,0.4,0.2,0.6c0.1,0.2,0.1,0.6,0.2,1
	l9.4,26.9c0.8,2.2,1.8,3.3,3.1,3.3v0.5h-12.1v-0.5c1.7-0.5,2.6-1.7,2.6-3.6c0-1.7-0.6-3.4-1.9-5.2s-3-3.2-5.2-4.4
	C331.1,52.8,328.7,52.1,325.9,52.1z M326.7,49.5c4.2,0,7.8,1.4,10.8,4.2l-5.9-16.9L326.7,49.5z M307,32.4l2.1,10.5l-0.4,0.1
	c-1-2.7-2.6-4.7-4.9-6s-4.6-2-7.1-2c-1.6,0-3.1,0.4-4.3,1.1c-1.3,0.7-2,1.8-2.2,3.4c0,0.6,0.3,1.1,0.7,1.6c0.5,0.5,1,0.8,1.7,1.2
	c0.7,0.3,1.6,0.6,2.7,1c1.1,0.3,2.3,0.7,3.4,1c5.1,1.5,8,2.5,8.9,3c1.6,0.8,2.9,2,3.8,3.6s1.4,3.2,1.4,5c0,2.5-0.8,4.7-2.3,6.6
	s-3.4,3.4-5.8,4.4s-4.8,1.5-7.2,1.5c-2.4,0-4.8-0.4-7.1-1.3c-0.8-0.3-1.5-0.4-2-0.4c-1.1,0-1.9,0.3-2.3,1L283,54.5l0.5-0.1
	c0.7,2.7,2.2,5.2,4.6,7.5s5.3,3.5,8.6,3.5c2.7-0.1,5-0.8,7.1-2c2.1-1.2,3.2-2.9,3.3-5.3c0-1.7-0.4-2.9-1.2-3.8
	c-0.8-0.8-2.3-1.7-4.5-2.5c-1.4-0.6-3.2-1.2-5.4-1.8c-2.2-0.6-3.9-1.1-5.1-1.5s-2.2-0.9-3.2-1.6c-2.1-1.5-3.2-3.5-3.3-5.9
	c0.1-1,0.2-1.7,0.3-2.2c0.5-2.1,1.9-3.8,4.1-5c2.3-1.2,4.8-1.7,7.7-1.7c0.6,0,1.4,0.1,2.3,0.2c0.9,0.1,1.7,0.3,2.5,0.4
	c0.8,0.2,1.9,0.4,3.1,0.6C305.9,33.4,306.6,33,307,32.4z M258.1,52.1l-3.3,9.3c-0.2,0.7-0.4,1.7-0.6,2.8c0.1,1.9,1.1,2.9,3,3v0.5
	h-10.9v-0.5c1.1-0.1,1.9-0.6,2.6-1.3c0.7-0.8,1.4-2.2,2.1-4.1l9.4-24.9c0.2-0.5,0.3-1,0.3-1.5c0-1.1-0.6-1.7-1.7-2V33h11.8v0.4
	c-1,0.2-1.5,0.9-1.6,2c0.1,0.2,0.1,0.4,0.2,0.6c0.1,0.2,0.1,0.6,0.2,1l9.4,26.9c0.8,2.2,1.8,3.3,3.1,3.3v0.5H270v-0.5
	c1.7-0.5,2.6-1.7,2.6-3.6c0-1.7-0.6-3.4-1.9-5.2s-3-3.2-5.2-4.4C263.3,52.8,260.8,52.1,258.1,52.1z M258.9,49.5
	c4.2,0,7.8,1.4,10.8,4.2l-5.9-16.9L258.9,49.5z M237.2,48.3L243,39c1-1.8,1.5-3.1,1.5-3.9c0-1.1-0.8-1.6-2.4-1.7V33h10.3v0.4
	c-1.7,0.1-3.4,1.5-5.1,4.2l-8.7,14v10c0,3.7,1.1,5.5,3.4,5.5v0.5h-12.7v-0.5c1.2-0.1,2-0.5,2.6-1.2c0.5-0.7,0.8-2,0.8-4V51.6
	L223.5,37c-1.4-2.2-2.8-3.4-4.4-3.6V33h13.7v0.4c-1.6,0.1-2.5,0.8-2.6,2.2c0.1,1.2,0.6,2.5,1.6,4L237.2,48.3z M203.5,62.2l8.6-24
	c0.3-1.1,0.4-1.8,0.4-2.2c0-1.7-0.8-2.5-2.4-2.6V33h9.4v0.4c-0.9,0.2-1.6,0.6-2.1,1.2s-1.1,1.6-1.6,3.1L206,63.9
	c-0.2,0.4-0.3,0.9-0.4,1.6c0.1,1.1,0.7,1.6,1.6,1.6v0.5h-10.1v-0.5c1,0,1.5-0.5,1.5-1.6c0-0.3-0.1-1-0.4-2.2l-8.9-25.7
	c-1-2.7-2.2-4.2-3.5-4.3v-0.4h11.6v0.4c-1.4,0.2-2.2,1.1-2.2,2.6c0,0.4,0.1,0.9,0.3,1.8L203.5,62.2z M166.5,52.1l-3.3,9.3
	c-0.2,0.7-0.4,1.7-0.6,2.8c0.1,1.9,1.1,2.9,3,3v0.5h-10.9v-0.5c1.1-0.1,1.9-0.6,2.6-1.3c0.7-0.8,1.4-2.2,2.1-4.1l9.4-24.9
	c0.2-0.5,0.3-1,0.3-1.5c0-1.1-0.6-1.7-1.7-2V33h11.8v0.4c-1,0.2-1.5,0.9-1.6,2c0.1,0.2,0.1,0.4,0.2,0.6c0.1,0.2,0.1,0.6,0.2,1
	l9.4,26.9c0.8,2.2,1.8,3.3,3.1,3.3v0.5h-12.1v-0.5c1.7-0.5,2.6-1.7,2.6-3.6c0-1.7-0.6-3.4-1.9-5.2c-1.3-1.8-3-3.2-5.2-4.4
	C171.8,52.8,169.3,52.1,166.5,52.1z M167.3,49.5c4.2,0,7.8,1.4,10.8,4.2l-5.9-16.9L167.3,49.5z M147.6,32.4l2.1,10.5l-0.4,0.1
	c-1-2.7-2.6-4.7-4.9-6c-2.3-1.3-4.6-2-7.1-2c-1.6,0-3.1,0.4-4.3,1.1c-1.3,0.7-2,1.8-2.2,3.4c0,0.6,0.3,1.1,0.7,1.6
	c0.5,0.5,1,0.8,1.7,1.2c0.7,0.3,1.6,0.6,2.7,1c1.1,0.3,2.3,0.7,3.4,1c5.1,1.5,8,2.5,8.9,3c1.6,0.8,2.9,2,3.8,3.6
	c0.9,1.6,1.4,3.2,1.4,5c0,2.5-0.8,4.7-2.3,6.6s-3.4,3.4-5.8,4.4c-2.4,1-4.8,1.5-7.2,1.5s-4.8-0.4-7.1-1.3c-0.8-0.3-1.5-0.4-2-0.4
	c-1.1,0-1.9,0.3-2.3,1l-3.1-13.2l0.5-0.1c0.7,2.7,2.2,5.2,4.6,7.5c2.4,2.3,5.3,3.5,8.6,3.5c2.7-0.1,5-0.8,7.1-2
	c2.1-1.2,3.2-2.9,3.3-5.3c0-1.7-0.4-2.9-1.2-3.8c-0.8-0.8-2.3-1.7-4.5-2.5c-1.4-0.6-3.2-1.2-5.4-1.8s-3.9-1.1-5.1-1.5
	c-1.2-0.4-2.2-0.9-3.2-1.6c-2.1-1.5-3.2-3.5-3.3-5.9c0.1-1,0.2-1.7,0.3-2.2c0.5-2.1,1.9-3.8,4.1-5c2.3-1.2,4.8-1.7,7.7-1.7
	c0.6,0,1.4,0.1,2.3,0.2c0.9,0.1,1.7,0.3,2.5,0.4c0.8,0.2,1.9,0.4,3.1,0.6C146.5,33.4,147.2,33,147.6,32.4z"/>
<path class="st0" d="M439.6,90.8c0,0.2,0,0.3,0,0.5c0,0.1-0.1,0.3-0.1,0.4s-0.1,0.2-0.2,0.2c-0.1,0.1-0.1,0.1-0.2,0.1
	c-0.2,0-0.4-0.1-0.8-0.4s-0.8-0.6-1.4-0.9s-1.3-0.6-2.2-0.9c-0.9-0.3-1.9-0.4-3.1-0.4c-1.5,0-2.9,0.3-4,0.8c-1.2,0.6-2.2,1.3-3,2.3
	s-1.4,2.1-1.9,3.5c-0.4,1.3-0.6,2.8-0.6,4.3c0,1.7,0.2,3.3,0.7,4.6c0.5,1.3,1.2,2.5,2,3.4c0.9,0.9,1.9,1.6,3.1,2.1s2.5,0.7,3.9,0.7
	c0.9,0,1.8-0.1,2.8-0.3c0.9-0.2,1.8-0.6,2.6-1v-8.3h-6.5c-0.2,0-0.4-0.1-0.5-0.3c-0.1-0.2-0.2-0.4-0.2-0.8c0-0.2,0-0.3,0-0.5
	c0-0.1,0.1-0.2,0.1-0.3c0-0.1,0.1-0.1,0.2-0.2c0.1,0,0.2-0.1,0.3-0.1h7.8c0.1,0,0.2,0,0.4,0.1c0.1,0,0.2,0.1,0.4,0.2
	c0.1,0.1,0.2,0.2,0.3,0.4c0.1,0.2,0.1,0.4,0.1,0.6v9.5c0,0.3,0,0.6-0.1,0.8c-0.1,0.2-0.3,0.4-0.7,0.6c-0.4,0.2-0.8,0.4-1.4,0.7
	c-0.6,0.2-1.2,0.5-1.8,0.6c-0.6,0.2-1.3,0.3-1.9,0.4s-1.3,0.1-1.9,0.1c-1.9,0-3.6-0.3-5.2-0.9c-1.5-0.6-2.8-1.5-3.8-2.6
	s-1.8-2.5-2.4-4.1s-0.8-3.3-0.8-5.2c0-2,0.3-3.8,0.9-5.4s1.4-3,2.5-4.2s2.4-2.1,3.9-2.7s3.2-1,5-1c0.9,0,1.8,0.1,2.6,0.3
	c0.8,0.2,1.6,0.4,2.2,0.6c0.7,0.2,1.2,0.5,1.7,0.8s0.8,0.5,0.9,0.7c0.2,0.2,0.3,0.3,0.3,0.5C439.6,90.2,439.6,90.5,439.6,90.8
	 M404.3,111.9c0,0.2,0,0.4-0.1,0.6s-0.2,0.3-0.3,0.4c-0.1,0.1-0.2,0.2-0.4,0.2c-0.1,0-0.3,0.1-0.4,0.1h-0.5c-0.3,0-0.5,0-0.7-0.1
	s-0.4-0.2-0.6-0.3c-0.2-0.2-0.4-0.4-0.6-0.7c-0.2-0.3-0.4-0.6-0.7-1.1l-9-15.9c-0.5-0.8-0.9-1.6-1.4-2.4s-0.9-1.6-1.3-2.4l0,0
	c0,1,0,1.9,0,2.9s0,2,0,2.9v16.5c0,0.1,0,0.2-0.1,0.2c0,0.1-0.1,0.1-0.2,0.2c-0.1,0-0.2,0.1-0.4,0.1c-0.2,0-0.3,0-0.6,0
	c-0.2,0-0.4,0-0.6,0s-0.3-0.1-0.4-0.1s-0.2-0.1-0.2-0.2s-0.1-0.1-0.1-0.2V88.8c0-0.5,0.1-0.8,0.4-1c0.2-0.2,0.5-0.3,0.7-0.3h1
	c0.3,0,0.6,0,0.8,0.1c0.2,0.1,0.4,0.1,0.6,0.3c0.2,0.1,0.3,0.3,0.5,0.5s0.3,0.5,0.5,0.9l6.9,12.2c0.4,0.8,0.8,1.5,1.2,2.2
	c0.4,0.7,0.8,1.4,1.1,2.1c0.4,0.7,0.7,1.3,1.1,2s0.7,1.3,1.1,2l0,0c0-1.1,0-2.3,0-3.5s0-2.3,0-3.5V88c0-0.1,0-0.1,0.1-0.2
	c0-0.1,0.1-0.1,0.2-0.2c0.1,0,0.2-0.1,0.4-0.1c0.2,0,0.3,0,0.6,0c0.2,0,0.4,0,0.6,0s0.3,0,0.4,0.1c0.1,0,0.2,0.1,0.2,0.2
	s0.1,0.1,0.1,0.2L404.3,111.9L404.3,111.9z M369.1,112.7c0,0.1,0,0.2-0.1,0.2c0,0.1-0.1,0.1-0.2,0.2c-0.1,0-0.2,0.1-0.4,0.1
	c-0.2,0-0.3,0-0.6,0c-0.2,0-0.4,0-0.6,0s-0.3-0.1-0.4-0.1s-0.2-0.1-0.2-0.2s-0.1-0.1-0.1-0.2V88c0-0.1,0-0.2,0.1-0.2
	c0-0.1,0.1-0.1,0.2-0.2c0.1,0,0.2-0.1,0.4-0.1c0.1,0,0.3,0,0.5,0s0.4,0,0.6,0c0.1,0,0.3,0.1,0.4,0.1s0.2,0.1,0.2,0.2
	s0.1,0.1,0.1,0.2v24.7H369.1z M347.5,94.4c0-1.1-0.2-2-0.7-2.8s-1.3-1.3-2.4-1.6c-0.4-0.1-0.8-0.2-1.2-0.2c-0.5,0-1-0.1-1.8-0.1
	h-3.2v9.4h3.7c1,0,1.8-0.1,2.5-0.4c0.7-0.2,1.3-0.6,1.8-1s0.8-0.9,1-1.5C347.4,95.7,347.5,95.1,347.5,94.4z M351.7,112.7
	c0,0.1,0,0.2-0.1,0.2c0,0.1-0.1,0.1-0.2,0.2c-0.1,0-0.2,0.1-0.4,0.1c-0.2,0-0.4,0-0.6,0s-0.4,0-0.6,0s-0.3-0.1-0.4-0.1
	c-0.1-0.1-0.2-0.1-0.3-0.2c-0.1-0.1-0.1-0.2-0.2-0.4l-2.4-6.2c-0.3-0.7-0.6-1.4-0.9-2s-0.7-1.2-1.1-1.6c-0.5-0.5-1-0.8-1.6-1.1
	c-0.6-0.3-1.4-0.4-2.3-0.4H338v11.5c0,0.1,0,0.2-0.1,0.2c0,0.1-0.1,0.1-0.2,0.2c-0.1,0-0.2,0.1-0.4,0.1c-0.2,0-0.3,0-0.6,0
	c-0.2,0-0.4,0-0.6,0s-0.3-0.1-0.4-0.1s-0.2-0.1-0.2-0.2s-0.1-0.1-0.1-0.2V88.8c0-0.5,0.1-0.8,0.4-1c0.2-0.2,0.5-0.3,0.7-0.3h4.8
	c0.6,0,1.1,0,1.6,0c0.4,0,0.8,0.1,1.1,0.1c1,0.2,1.8,0.5,2.5,0.8c0.7,0.4,1.3,0.9,1.8,1.4c0.5,0.6,0.8,1.2,1,1.9
	c0.2,0.7,0.3,1.5,0.3,2.3s-0.1,1.6-0.4,2.3c-0.2,0.7-0.6,1.2-1,1.8c-0.4,0.5-0.9,0.9-1.6,1.3c-0.6,0.4-1.3,0.7-2,0.9
	c0.4,0.2,0.8,0.4,1.2,0.7c0.3,0.3,0.7,0.6,1,1s0.6,0.9,0.8,1.4c0.3,0.5,0.5,1.1,0.8,1.8l2.4,6c0.2,0.5,0.3,0.8,0.3,0.9
	C351.7,112.5,351.7,112.6,351.7,112.7z M320.3,112c0,0.2,0,0.3,0,0.5c0,0.1-0.1,0.2-0.1,0.3c-0.1,0.1-0.1,0.2-0.2,0.2
	s-0.2,0.1-0.3,0.1h-11.9c-0.2,0-0.5-0.1-0.7-0.3c-0.2-0.2-0.4-0.5-0.4-1v-23c0-0.5,0.1-0.8,0.4-1c0.2-0.2,0.5-0.3,0.7-0.3h11.8
	c0.1,0,0.2,0,0.3,0.1c0.1,0,0.1,0.1,0.2,0.2s0.1,0.2,0.1,0.3c0,0.1,0,0.3,0,0.5s0,0.3,0,0.5c0,0.1-0.1,0.2-0.1,0.3
	c-0.1,0.1-0.1,0.1-0.2,0.2c-0.1,0-0.2,0.1-0.3,0.1H309v9h9c0.1,0,0.2,0,0.3,0.1c0.1,0,0.1,0.1,0.2,0.2s0.1,0.2,0.1,0.3
	c0,0.1,0,0.3,0,0.5s0,0.3,0,0.4s-0.1,0.2-0.1,0.3c-0.1,0.1-0.1,0.1-0.2,0.2c-0.1,0-0.2,0.1-0.3,0.1h-9V111h10.6c0.1,0,0.2,0,0.3,0.1
	c0.1,0,0.1,0.1,0.2,0.2s0.1,0.2,0.1,0.3C320.3,111.7,320.3,111.8,320.3,112z M291.1,112c0,0.2,0,0.3,0,0.5c0,0.1-0.1,0.2-0.1,0.3
	c-0.1,0.1-0.1,0.2-0.2,0.2s-0.2,0.1-0.3,0.1h-11.9c-0.2,0-0.5-0.1-0.7-0.3c-0.2-0.2-0.4-0.5-0.4-1v-23c0-0.5,0.1-0.8,0.4-1
	c0.2-0.2,0.5-0.3,0.7-0.3h11.8c0.1,0,0.2,0,0.3,0.1c0.1,0,0.1,0.1,0.2,0.2s0.1,0.2,0.1,0.3c0,0.1,0,0.3,0,0.5s0,0.3,0,0.5
	c0,0.1-0.1,0.2-0.1,0.3c-0.1,0.1-0.1,0.1-0.2,0.2c-0.1,0-0.2,0.1-0.3,0.1h-10.5v9h9c0.1,0,0.2,0,0.3,0.1c0.1,0,0.1,0.1,0.2,0.2
	s0.1,0.2,0.1,0.3c0,0.1,0,0.3,0,0.5s0,0.3,0,0.4s-0.1,0.2-0.1,0.3c-0.1,0.1-0.1,0.1-0.2,0.2c-0.1,0-0.2,0.1-0.3,0.1h-9V111h10.6
	c0.1,0,0.2,0,0.3,0.1c0.1,0,0.1,0.1,0.2,0.2s0.1,0.2,0.1,0.3C291.1,111.7,291.1,111.8,291.1,112z M260.5,111.9c0,0.2,0,0.4-0.1,0.6
	s-0.2,0.3-0.3,0.4c-0.1,0.1-0.2,0.2-0.4,0.2c-0.1,0-0.3,0.1-0.4,0.1h-0.5c-0.3,0-0.5,0-0.7-0.1s-0.4-0.2-0.6-0.3
	c-0.2-0.2-0.4-0.4-0.6-0.7c-0.2-0.3-0.4-0.6-0.7-1.1l-9-15.9c-0.5-0.8-0.9-1.6-1.4-2.4s-0.9-1.6-1.3-2.4l0,0c0,1,0,1.9,0,2.9
	s0,2,0,2.9v16.5c0,0.1,0,0.2-0.1,0.2c0,0.1-0.1,0.1-0.2,0.2c-0.1,0-0.2,0.1-0.4,0.1s-0.3,0-0.6,0c-0.2,0-0.4,0-0.6,0
	c-0.2,0-0.3-0.1-0.4-0.1c-0.1,0-0.2-0.1-0.2-0.2s-0.1-0.1-0.1-0.2V88.8c0-0.5,0.1-0.8,0.4-1c0.2-0.2,0.5-0.3,0.7-0.3h1
	c0.3,0,0.6,0,0.8,0.1s0.4,0.1,0.6,0.3c0.2,0.1,0.3,0.3,0.5,0.5s0.3,0.5,0.5,0.9l6.9,12.2c0.4,0.8,0.8,1.5,1.2,2.2s0.8,1.4,1.1,2.1
	c0.4,0.7,0.7,1.3,1.1,2s0.7,1.3,1.1,2l0,0c0-1.1,0-2.3,0-3.5s0-2.3,0-3.5V88c0-0.1,0-0.1,0.1-0.2c0-0.1,0.1-0.1,0.2-0.2
	c0.1,0,0.2-0.1,0.4-0.1c0.2,0,0.3,0,0.6,0c0.2,0,0.4,0,0.6,0s0.3,0,0.4,0.1c0.1,0,0.2,0.1,0.2,0.2s0.1,0.1,0.1,0.2L260.5,111.9
	L260.5,111.9z M225.3,112.7c0,0.1,0,0.2-0.1,0.2c0,0.1-0.1,0.1-0.2,0.2c-0.1,0-0.2,0.1-0.4,0.1s-0.3,0-0.6,0c-0.2,0-0.4,0-0.6,0
	c-0.2,0-0.3-0.1-0.4-0.1c-0.1,0-0.2-0.1-0.2-0.2s-0.1-0.1-0.1-0.2V88c0-0.1,0-0.2,0.1-0.2c0-0.1,0.1-0.1,0.2-0.2
	c0.1,0,0.2-0.1,0.4-0.1c0.1,0,0.3,0,0.5,0s0.4,0,0.6,0c0.1,0,0.3,0.1,0.4,0.1c0.1,0,0.2,0.1,0.2,0.2s0.1,0.1,0.1,0.2v24.7H225.3z
	 M206.6,90.8c0,0.2,0,0.3,0,0.5c0,0.1-0.1,0.3-0.1,0.4s-0.1,0.2-0.2,0.2c-0.1,0.1-0.1,0.1-0.2,0.1c-0.2,0-0.4-0.1-0.8-0.4
	c-0.4-0.3-0.8-0.6-1.4-0.9c-0.6-0.3-1.3-0.6-2.2-0.9s-1.9-0.4-3.1-0.4c-1.5,0-2.9,0.3-4,0.8c-1.2,0.6-2.2,1.3-3,2.3
	s-1.4,2.1-1.9,3.5c-0.4,1.3-0.6,2.8-0.6,4.3c0,1.7,0.2,3.3,0.7,4.6c0.5,1.3,1.2,2.5,2,3.4c0.9,0.9,1.9,1.6,3.1,2.1
	c1.2,0.5,2.5,0.7,3.9,0.7c0.9,0,1.8-0.1,2.8-0.3c0.9-0.2,1.8-0.6,2.6-1v-8.3h-6.5c-0.2,0-0.4-0.1-0.5-0.3c-0.1-0.2-0.2-0.4-0.2-0.8
	c0-0.2,0-0.3,0-0.5c0-0.1,0.1-0.2,0.1-0.3c0-0.1,0.1-0.1,0.2-0.2c0.1,0,0.2-0.1,0.3-0.1h7.8c0.1,0,0.2,0,0.4,0.1
	c0.1,0,0.2,0.1,0.4,0.2c0.1,0.1,0.2,0.2,0.3,0.4c0.1,0.2,0.1,0.4,0.1,0.6v9.5c0,0.3,0,0.6-0.1,0.8c-0.1,0.2-0.3,0.4-0.7,0.6
	s-0.8,0.4-1.4,0.7c-0.6,0.2-1.2,0.5-1.8,0.6c-0.6,0.2-1.3,0.3-1.9,0.4c-0.6,0.1-1.3,0.1-1.9,0.1c-1.9,0-3.6-0.3-5.2-0.9
	c-1.5-0.6-2.8-1.5-3.8-2.6s-1.8-2.5-2.4-4.1c-0.6-1.6-0.8-3.3-0.8-5.2c0-2,0.3-3.8,0.9-5.4c0.6-1.6,1.4-3,2.5-4.2s2.4-2.1,3.9-2.7
	s3.2-1,5-1c0.9,0,1.8,0.1,2.6,0.3c0.8,0.2,1.6,0.4,2.2,0.6c0.7,0.2,1.2,0.5,1.7,0.8s0.8,0.5,0.9,0.7c0.2,0.2,0.3,0.3,0.3,0.5
	C206.6,90.2,206.6,90.5,206.6,90.8z M171.3,111.9c0,0.2,0,0.4-0.1,0.6s-0.2,0.3-0.3,0.4s-0.2,0.2-0.4,0.2c-0.1,0-0.3,0.1-0.4,0.1
	h-0.5c-0.3,0-0.5,0-0.7-0.1s-0.4-0.2-0.6-0.3c-0.2-0.2-0.4-0.4-0.6-0.7c-0.2-0.3-0.4-0.6-0.7-1.1l-9-15.9c-0.5-0.8-0.9-1.6-1.4-2.4
	s-0.9-1.6-1.3-2.4l0,0c0,1,0,1.9,0,2.9s0,2,0,2.9v16.5c0,0.1,0,0.2-0.1,0.2c0,0.1-0.1,0.1-0.2,0.2c-0.1,0-0.2,0.1-0.4,0.1
	s-0.3,0-0.6,0c-0.2,0-0.4,0-0.6,0c-0.2,0-0.3-0.1-0.4-0.1c-0.1,0-0.2-0.1-0.2-0.2s-0.1-0.1-0.1-0.2V88.8c0-0.5,0.1-0.8,0.4-1
	c0.2-0.2,0.5-0.3,0.7-0.3h1c0.3,0,0.6,0,0.8,0.1s0.4,0.1,0.6,0.3c0.2,0.1,0.3,0.3,0.5,0.5s0.3,0.5,0.5,0.9l6.9,12.2
	c0.4,0.8,0.8,1.5,1.2,2.2s0.8,1.4,1.1,2.1c0.4,0.7,0.7,1.3,1.1,2c0.4,0.7,0.7,1.3,1.1,2l0,0c0-1.1,0-2.3,0-3.5s0-2.3,0-3.5V88
	c0-0.1,0-0.1,0.1-0.2c0-0.1,0.1-0.1,0.2-0.2c0.1,0,0.2-0.1,0.4-0.1s0.3,0,0.6,0c0.2,0,0.4,0,0.6,0c0.2,0,0.3,0,0.4,0.1
	c0.1,0,0.2,0.1,0.2,0.2s0.1,0.1,0.1,0.2L171.3,111.9L171.3,111.9z M137.5,112c0,0.2,0,0.3,0,0.5c0,0.1-0.1,0.2-0.1,0.3
	c-0.1,0.1-0.1,0.2-0.2,0.2c-0.1,0-0.2,0.1-0.3,0.1H125c-0.2,0-0.5-0.1-0.7-0.3c-0.2-0.2-0.4-0.5-0.4-1v-23c0-0.5,0.1-0.8,0.4-1
	c0.2-0.2,0.5-0.3,0.7-0.3h11.8c0.1,0,0.2,0,0.3,0.1c0.1,0,0.1,0.1,0.2,0.2c0.1,0.1,0.1,0.2,0.1,0.3c0,0.1,0,0.3,0,0.5s0,0.3,0,0.5
	c0,0.1-0.1,0.2-0.1,0.3c-0.1,0.1-0.1,0.1-0.2,0.2c-0.1,0-0.2,0.1-0.3,0.1h-10.5v9h9c0.1,0,0.2,0,0.3,0.1c0.1,0,0.1,0.1,0.2,0.2
	c0.1,0.1,0.1,0.2,0.1,0.3c0,0.1,0,0.3,0,0.5s0,0.3,0,0.4s-0.1,0.2-0.1,0.3c-0.1,0.1-0.1,0.1-0.2,0.2c-0.1,0-0.2,0.1-0.3,0.1h-9V111
	h10.6c0.1,0,0.2,0,0.3,0.1c0.1,0,0.1,0.1,0.2,0.2c0.1,0.1,0.1,0.2,0.1,0.3C137.5,111.7,137.5,111.8,137.5,112z"/>
<line class="st1" x1="123.8" y1="78" x2="439.6" y2="78"/>
<path class="st2" d="M46.1,33.6H67c0,0,1-27.8-28.6-33.6H0v38.7c0,0,3.3,25.5,31.4,28.5h51.1c0,0,8.6,1.6,10.2,10.5v15H78.6
	c0,0-11.3-1.6-11.3-12.9H46.1c0,0-0.8,28.9,30.1,33.5h37.2V75.8c0,0-3.3-27.1-31.5-29.4H31.4c0,0-10.1-2.9-10.7-10.7v-15h15.1
	C35.9,20.7,45.9,22.3,46.1,33.6"/>
<polygon class="st2" points="79.6,0 92.7,0 113.4,0 113.4,20.7 113.4,33.8 92.7,33.8 92.7,20.7 79.6,20.7 "/>
<polygon class="st2" points="33.8,113.4 20.7,113.4 0,113.4 0,92.7 0,79.6 20.7,79.6 20.7,92.7 33.8,92.7 "/>
</svg>
